# xmcd
#
# Track frame offsets:
#	150
#	9029
#	24859
#	45526
#	62385
#	75197
#	109257
#	122849
#	133228
#	164318
#	181140
#	189612
#	207939
#	219901
#	242720
#	256655
#	273004
#	288716
#	315248
#
# Disc length: 4477 seconds
#
# Revision: 0
# Processed by: cddbd v1.4PL0 Copyright (c) Steve Scherf et al.
# Submitted via: dBpowerAMP V4.0
#
DISCID=f0117b13
DTITLE=Cuby and Blizzards  - Blues Traveller - CD 1 - Just For Fun
DYEAR=1900
DGENRE=Blues
TTITLE0=Stumble And Fall
TTITLE1=LSD (Got A Million Dollars)
TTITLE2=Back Home (A Man)
TTITLE3=You Don't Know
TTITLE4=Just For Fun
TTITLE5=Gin House Blues
TTITLE6=Desolation Blues
TTITLE7=Let's Make It
TTITLE8=Somebody Will Know Someday
TTITLE9=So Many Roads
TTITLE10=Another Day Another Road
TTITLE11=Crying Tears
TTITLE12=Feeling Like A Suit-Case
TTITLE13=Don't Know Which Way To Go
TTITLE14=Distant Smile
TTITLE15=Nostalgic Toilet
TTITLE16=Window Of My Eyes
TTITLE17=The Sky Is Crying
TTITLE18=No Shoes
EXTD=
EXTT0=
EXTT1=
EXTT2=
EXTT3=
EXTT4=
EXTT5=
EXTT6=
EXTT7=
EXTT8=
EXTT9=
EXTT10=
EXTT11=
EXTT12=
EXTT13=
EXTT14=
EXTT15=
EXTT16=
EXTT17=
EXTT18=
PLAYORDER=
